<svg xmlns="http://www.w3.org/2000/svg" viewBox="0 0 24 24" fill="none" stroke="#1f2937" stroke-width="1.5" stroke-linecap="round" stroke-linejoin="round" width="512" height="512">
  <path d="M10 12v-1"/>
  <path d="M10 18v-1"/>
  <path d="M10 7V6"/>
  <path d="M14 2v4a2 2 0 0 0 2 2h4"/>
  <path d="M15.5 22H18a2 2 0 0 0 2-2V7.5L14.5 2H6a2 2 0 0 0-2 2v16c0 1.1.9 2 2 2h1.5"/>
  <path d="M8 10h4v1H8z"/>
  <path d="M8 12h4v1H8z"/>
  <path d="M8 14h4v1H8z"/>
  <path d="M8 16h4v1H8z"/>
  <path d="M8 6h4v1H8z"/>
  <path d="M8 8h4v1H8z"/>
</svg>
