<svg xmlns="http://www.w3.org/2000/svg" viewBox="0 0 100 100" width="512" height="512">
  <rect x="0" y="0" width="100" height="100" rx="22" ry="22" fill="#111111" />
  <g transform="translate(14, 14) scale(3.0)" fill="none" stroke="#ffffff" stroke-width="1.5" stroke-linecap="round" stroke-linejoin="round">
    <path d="M13 2H6a2 2 0 0 0-2 2v16a2 2 0 0 0 2 2h12a2 2 0 0 0 2-2V9z" />
    <polyline points="13 2 13 9 20 9" />
    <line x1="12" y1="12" x2="12" y2="19" />
    <line x1="9.5" y1="13" x2="12" y2="13" />
    <line x1="12" y1="14.5" x2="14.5" y2="14.5" />
    <line x1="9.5" y1="16" x2="12" y2="16" />
    <line x1="12" y1="17.5" x2="14.5" y2="17.5" />
  </g>
</svg>
